<svg xmlns="http://www.w3.org/2000/svg" width="18.917" height="13.876" viewBox="0 0 18.917 13.876"><defs><style>.a{fill:#27b535;}.b,.c{stroke:none;}.c{fill:#fff;}</style></defs><g transform="translate(0 -10.442)"><g class="a"><path class="b" d="M 6.923457622528076 24.11828994750977 C 6.911387920379639 24.11828994750977 6.893757820129395 24.11503982543945 6.878307819366455 24.09955024719238 L 0.2184676975011826 17.43947982788086 C 0.1934276968240738 17.41448974609375 0.1935777068138123 17.37384986877441 0.2186377048492432 17.34873008728027 L 1.836687684059143 15.73069000244141 C 1.852997660636902 15.71442031860352 1.87219774723053 15.71197032928467 1.882187724113464 15.71197032928467 C 1.892117738723755 15.71197032928467 1.911207675933838 15.71440029144287 1.927497744560242 15.73069000244141 L 6.782367706298828 20.58531951904297 L 6.923787593841553 20.72673988342285 L 7.065207481384277 20.58531951904297 L 16.98905754089355 10.66147041320801 C 17.00454711914063 10.64605045318604 17.02238845825195 10.64275074005127 17.0345573425293 10.64275074005127 C 17.04666709899902 10.64275074005127 17.06439781188965 10.64601993560791 17.08003807067871 10.66164016723633 L 18.69783782958984 12.27967071533203 C 18.71349716186523 12.29530048370361 18.71674728393555 12.31288051605225 18.71674728393555 12.32491016387939 C 18.71674728393555 12.33486080169678 18.71427726745605 12.35403060913086 18.69767761230469 12.37066078186035 L 6.968957901000977 24.09939002990723 C 6.952507495880127 24.11584091186523 6.933387756347656 24.11828994750977 6.923457622528076 24.11828994750977 Z"/><path class="c" d="M 17.03446006774902 10.89890670776367 L 7.20662784576416 20.72674179077148 L 6.923797607421875 21.00958061218262 L 6.640947341918945 20.72674942016602 L 1.882089614868164 15.96811866760254 L 0.4560203552246094 17.39418792724609 L 6.923549652099609 23.86195755004883 L 18.46042442321777 12.32508277893066 L 17.03446006774902 10.89890670776367 M 17.0345573425293 10.44274711608887 C 17.10211563110352 10.44274711608887 17.16964340209961 10.46851539611816 17.22129821777344 10.52005004882813 L 18.83926773071289 12.13825988769531 C 18.94257736206055 12.24133110046387 18.94257736206055 12.40837097167969 18.83926773071289 12.51192092895508 L 7.110377311706543 24.24081039428711 C 7.058722496032715 24.29246520996094 6.99107551574707 24.31829261779785 6.923458099365234 24.31829261779785 C 6.855839729309082 24.31829261779785 6.788252830505371 24.29246520996094 6.73671817779541 24.24081039428711 L 0.07704734802246094 17.58090019226074 C -0.02602195739746094 17.47807121276855 -0.02602195739746094 17.310791015625 0.07704734802246094 17.20747947692871 L 1.695257186889648 15.58926963806152 C 1.746912002563477 15.53773498535156 1.814559936523438 15.5119686126709 1.882177352905273 15.5119686126709 C 1.949794769287109 15.5119686126709 2.017383575439453 15.53773498535156 2.068918228149414 15.58926963806152 L 6.923788070678711 20.44390106201172 L 16.84763717651367 10.52005004882813 C 16.89941215515137 10.46851539611816 16.96700096130371 10.44274711608887 17.0345573425293 10.44274711608887 Z"/></g></g></svg>